<mxfile host="app.diagrams.net" modified="2024-01-24T06:42:45.034Z" agent="Mozilla/5.0 (Windows NT 10.0; Win64; x64) AppleWebKit/537.36 (KHTML, like Gecko) Chrome/120.0.0.0 Safari/537.36 Edg/120.0.0.0" etag="FJQ_t7IKs6BeCACMtxsA" version="23.0.0" type="google">
  <diagram name="Page-1" id="2p_Z4MbDAMNIqAl9M2RM">
    <mxGraphModel grid="0" page="0" gridSize="10" guides="1" tooltips="1" connect="1" arrows="1" fold="1" pageScale="1" pageWidth="827" pageHeight="1169" math="0" shadow="0">
      <root>
        <mxCell id="0" />
        <mxCell id="1" parent="0" />
        <mxCell id="vXJ-e7QHEPO1Bek4WTOe-2" value="" style="edgeStyle=none;curved=1;rounded=0;orthogonalLoop=1;jettySize=auto;html=1;fontSize=12;startSize=8;endSize=8;" edge="1" parent="1" target="vXJ-e7QHEPO1Bek4WTOe-1">
          <mxGeometry relative="1" as="geometry">
            <mxPoint x="136.20095073465882" y="242" as="sourcePoint" />
          </mxGeometry>
        </mxCell>
        <mxCell id="vXJ-e7QHEPO1Bek4WTOe-15" value="" style="edgeStyle=none;curved=1;rounded=0;orthogonalLoop=1;jettySize=auto;html=1;fontSize=12;startSize=8;endSize=8;" edge="1" parent="1" target="vXJ-e7QHEPO1Bek4WTOe-18">
          <mxGeometry relative="1" as="geometry">
            <mxPoint x="181" y="488" as="sourcePoint" />
            <mxPoint x="361" y="626" as="targetPoint" />
          </mxGeometry>
        </mxCell>
        <mxCell id="vXJ-e7QHEPO1Bek4WTOe-17" value="" style="edgeStyle=none;curved=1;rounded=0;orthogonalLoop=1;jettySize=auto;html=1;fontSize=12;startSize=8;endSize=8;" edge="1" parent="1" source="vXJ-e7QHEPO1Bek4WTOe-1" target="vXJ-e7QHEPO1Bek4WTOe-19">
          <mxGeometry relative="1" as="geometry">
            <mxPoint x="-82" y="631" as="targetPoint" />
          </mxGeometry>
        </mxCell>
        <mxCell id="vXJ-e7QHEPO1Bek4WTOe-1" value="&#xa;&lt;span style=&quot;color: rgb(0, 0, 0); font-family: Helvetica; font-size: 16px; font-style: normal; font-variant-ligatures: normal; font-variant-caps: normal; font-weight: 400; letter-spacing: normal; orphans: 2; text-align: center; text-indent: 0px; text-transform: none; widows: 2; word-spacing: 0px; -webkit-text-stroke-width: 0px; background-color: rgb(255, 255, 255); text-decoration-thickness: initial; text-decoration-style: initial; text-decoration-color: initial; float: none; display: inline !important;&quot;&gt;nature trip or ocean trip&lt;/span&gt;&#xa;&#xa;" style="rhombus;whiteSpace=wrap;html=1;fontSize=16;rounded=1;movable=1;resizable=1;rotatable=1;deletable=1;editable=1;locked=0;connectable=1;" vertex="1" parent="1">
          <mxGeometry x="12.5" y="378" width="248.5" height="178" as="geometry" />
        </mxCell>
        <mxCell id="vXJ-e7QHEPO1Bek4WTOe-3" value="ocean trip" style="text;html=1;align=center;verticalAlign=middle;resizable=0;points=[];autosize=1;strokeColor=none;fillColor=none;fontSize=16;" vertex="1" parent="1">
          <mxGeometry x="-66" y="525" width="88" height="31" as="geometry" />
        </mxCell>
        <mxCell id="vXJ-e7QHEPO1Bek4WTOe-33" value="" style="edgeStyle=none;curved=1;rounded=0;orthogonalLoop=1;jettySize=auto;html=1;fontSize=12;startSize=8;endSize=8;" edge="1" parent="1" source="vXJ-e7QHEPO1Bek4WTOe-18" target="vXJ-e7QHEPO1Bek4WTOe-32">
          <mxGeometry relative="1" as="geometry" />
        </mxCell>
        <mxCell id="vXJ-e7QHEPO1Bek4WTOe-35" value="" style="edgeStyle=none;curved=1;rounded=0;orthogonalLoop=1;jettySize=auto;html=1;fontSize=12;startSize=8;endSize=8;" edge="1" parent="1" source="vXJ-e7QHEPO1Bek4WTOe-18" target="vXJ-e7QHEPO1Bek4WTOe-34">
          <mxGeometry relative="1" as="geometry" />
        </mxCell>
        <mxCell id="vXJ-e7QHEPO1Bek4WTOe-18" value="Hiking" style="rhombus;whiteSpace=wrap;html=1;fontSize=16;" vertex="1" parent="1">
          <mxGeometry x="321" y="586" width="205" height="190" as="geometry" />
        </mxCell>
        <mxCell id="vXJ-e7QHEPO1Bek4WTOe-46" value="" style="edgeStyle=none;curved=1;rounded=0;orthogonalLoop=1;jettySize=auto;html=1;fontSize=12;startSize=8;endSize=8;" edge="1" parent="1" source="vXJ-e7QHEPO1Bek4WTOe-19" target="vXJ-e7QHEPO1Bek4WTOe-45">
          <mxGeometry relative="1" as="geometry" />
        </mxCell>
        <mxCell id="vXJ-e7QHEPO1Bek4WTOe-54" value="" style="edgeStyle=none;curved=1;rounded=0;orthogonalLoop=1;jettySize=auto;html=1;fontSize=12;startSize=8;endSize=8;" edge="1" parent="1" source="vXJ-e7QHEPO1Bek4WTOe-19">
          <mxGeometry relative="1" as="geometry">
            <mxPoint x="-392" y="687" as="targetPoint" />
          </mxGeometry>
        </mxCell>
        <mxCell id="vXJ-e7QHEPO1Bek4WTOe-19" value="stay in" style="rhombus;whiteSpace=wrap;html=1;fontSize=16;" vertex="1" parent="1">
          <mxGeometry x="-235" y="593" width="201" height="187" as="geometry" />
        </mxCell>
        <mxCell id="vXJ-e7QHEPO1Bek4WTOe-25" value="travel from manila to Davao" style="rounded=0;whiteSpace=wrap;html=1;fontSize=16;" vertex="1" parent="1">
          <mxGeometry x="40.25" y="168" width="193" height="71" as="geometry" />
        </mxCell>
        <mxCell id="vXJ-e7QHEPO1Bek4WTOe-27" value="" style="edgeStyle=none;curved=1;rounded=0;orthogonalLoop=1;jettySize=auto;html=1;fontSize=12;startSize=8;endSize=8;" edge="1" parent="1" source="vXJ-e7QHEPO1Bek4WTOe-26" target="vXJ-e7QHEPO1Bek4WTOe-25">
          <mxGeometry relative="1" as="geometry" />
        </mxCell>
        <mxCell id="vXJ-e7QHEPO1Bek4WTOe-26" value="&lt;br&gt;Start" style="rounded=1;whiteSpace=wrap;html=1;fontSize=16;" vertex="1" parent="1">
          <mxGeometry x="76.75" y="-20" width="120" height="74" as="geometry" />
        </mxCell>
        <mxCell id="vXJ-e7QHEPO1Bek4WTOe-32" value="Viper Peak Trail" style="whiteSpace=wrap;html=1;fontSize=16;" vertex="1" parent="1">
          <mxGeometry x="688.5" y="651" width="120" height="60" as="geometry" />
        </mxCell>
        <mxCell id="vXJ-e7QHEPO1Bek4WTOe-34" value="Green Mountain View" style="whiteSpace=wrap;html=1;fontSize=16;" vertex="1" parent="1">
          <mxGeometry x="363.5" y="961" width="120" height="60" as="geometry" />
        </mxCell>
        <mxCell id="vXJ-e7QHEPO1Bek4WTOe-38" value="nature trip" style="text;html=1;align=center;verticalAlign=middle;resizable=0;points=[];autosize=1;strokeColor=none;fillColor=none;fontSize=16;" vertex="1" parent="1">
          <mxGeometry x="267" y="525" width="90" height="31" as="geometry" />
        </mxCell>
        <mxCell id="vXJ-e7QHEPO1Bek4WTOe-41" value="1 week" style="text;html=1;align=center;verticalAlign=middle;resizable=0;points=[];autosize=1;strokeColor=none;fillColor=none;fontSize=16;" vertex="1" parent="1">
          <mxGeometry x="-346" y="651" width="69" height="31" as="geometry" />
        </mxCell>
        <mxCell id="vXJ-e7QHEPO1Bek4WTOe-42" value="3 days" style="text;html=1;align=center;verticalAlign=middle;resizable=0;points=[];autosize=1;strokeColor=none;fillColor=none;fontSize=16;" vertex="1" parent="1">
          <mxGeometry x="-127" y="856" width="65" height="31" as="geometry" />
        </mxCell>
        <mxCell id="vXJ-e7QHEPO1Bek4WTOe-49" value="" style="edgeStyle=none;curved=1;rounded=0;orthogonalLoop=1;jettySize=auto;html=1;fontSize=12;startSize=8;endSize=8;" edge="1" parent="1" source="vXJ-e7QHEPO1Bek4WTOe-43" target="vXJ-e7QHEPO1Bek4WTOe-48">
          <mxGeometry relative="1" as="geometry" />
        </mxCell>
        <mxCell id="vXJ-e7QHEPO1Bek4WTOe-51" value="" style="edgeStyle=none;curved=1;rounded=0;orthogonalLoop=1;jettySize=auto;html=1;fontSize=12;startSize=8;endSize=8;" edge="1" parent="1" source="vXJ-e7QHEPO1Bek4WTOe-43" target="vXJ-e7QHEPO1Bek4WTOe-50">
          <mxGeometry relative="1" as="geometry" />
        </mxCell>
        <mxCell id="vXJ-e7QHEPO1Bek4WTOe-43" value="agenda" style="shape=parallelogram;perimeter=parallelogramPerimeter;whiteSpace=wrap;html=1;fixedSize=1;fontSize=16;" vertex="1" parent="1">
          <mxGeometry x="-576" y="678" width="180.5" height="38.5" as="geometry" />
        </mxCell>
        <mxCell id="vXJ-e7QHEPO1Bek4WTOe-64" value="" style="edgeStyle=none;curved=1;rounded=0;orthogonalLoop=1;jettySize=auto;html=1;fontSize=12;startSize=8;endSize=8;" edge="1" parent="1" source="vXJ-e7QHEPO1Bek4WTOe-45" target="vXJ-e7QHEPO1Bek4WTOe-63">
          <mxGeometry relative="1" as="geometry" />
        </mxCell>
        <mxCell id="vXJ-e7QHEPO1Bek4WTOe-66" value="" style="edgeStyle=none;curved=1;rounded=0;orthogonalLoop=1;jettySize=auto;html=1;fontSize=12;startSize=8;endSize=8;" edge="1" parent="1" source="vXJ-e7QHEPO1Bek4WTOe-45" target="vXJ-e7QHEPO1Bek4WTOe-65">
          <mxGeometry relative="1" as="geometry" />
        </mxCell>
        <mxCell id="vXJ-e7QHEPO1Bek4WTOe-45" value="plans" style="shape=parallelogram;perimeter=parallelogramPerimeter;whiteSpace=wrap;html=1;fixedSize=1;fontSize=16;" vertex="1" parent="1">
          <mxGeometry x="-194.5" y="963.5" width="120" height="60" as="geometry" />
        </mxCell>
        <mxCell id="vXJ-e7QHEPO1Bek4WTOe-47" value="" style="edgeStyle=elbowEdgeStyle;elbow=horizontal;endArrow=classic;html=1;curved=0;rounded=0;endSize=8;startSize=8;fontSize=12;exitX=0.5;exitY=1;exitDx=0;exitDy=0;" edge="1" parent="1" source="vXJ-e7QHEPO1Bek4WTOe-32">
          <mxGeometry width="50" height="50" relative="1" as="geometry">
            <mxPoint x="600" y="821" as="sourcePoint" />
            <mxPoint x="660" y="1144" as="targetPoint" />
            <Array as="points">
              <mxPoint x="755" y="936" />
            </Array>
          </mxGeometry>
        </mxCell>
        <mxCell id="vXJ-e7QHEPO1Bek4WTOe-48" value="scuba diving" style="rounded=1;whiteSpace=wrap;html=1;fontSize=16;" vertex="1" parent="1">
          <mxGeometry x="-545.75" y="825.75" width="120" height="60" as="geometry" />
        </mxCell>
        <mxCell id="vXJ-e7QHEPO1Bek4WTOe-50" value="surfing" style="rounded=1;whiteSpace=wrap;html=1;fontSize=16;" vertex="1" parent="1">
          <mxGeometry x="-846.25" y="667.25" width="120" height="60" as="geometry" />
        </mxCell>
        <mxCell id="vXJ-e7QHEPO1Bek4WTOe-56" value="" style="edgeStyle=segmentEdgeStyle;endArrow=classic;html=1;curved=0;rounded=0;endSize=8;startSize=8;fontSize=12;exitX=0.5;exitY=1;exitDx=0;exitDy=0;" edge="1" parent="1" source="vXJ-e7QHEPO1Bek4WTOe-34">
          <mxGeometry width="50" height="50" relative="1" as="geometry">
            <mxPoint x="398.5" y="1142" as="sourcePoint" />
            <mxPoint x="524" y="1145" as="targetPoint" />
            <Array as="points">
              <mxPoint x="421" y="1021" />
              <mxPoint x="421" y="1145" />
              <mxPoint x="449" y="1145" />
            </Array>
          </mxGeometry>
        </mxCell>
        <mxCell id="vXJ-e7QHEPO1Bek4WTOe-78" value="" style="edgeStyle=none;curved=1;rounded=0;orthogonalLoop=1;jettySize=auto;html=1;fontSize=12;startSize=8;endSize=8;" edge="1" parent="1" source="vXJ-e7QHEPO1Bek4WTOe-58">
          <mxGeometry relative="1" as="geometry">
            <mxPoint x="594.5" y="1290" as="targetPoint" />
          </mxGeometry>
        </mxCell>
        <mxCell id="vXJ-e7QHEPO1Bek4WTOe-58" value="travel from Davao to Manila" style="rounded=0;whiteSpace=wrap;html=1;fontSize=16;" vertex="1" parent="1">
          <mxGeometry x="526" y="1114" width="137" height="56" as="geometry" />
        </mxCell>
        <mxCell id="vXJ-e7QHEPO1Bek4WTOe-59" value="" style="edgeStyle=segmentEdgeStyle;endArrow=classic;html=1;curved=0;rounded=0;endSize=8;startSize=8;fontSize=12;exitX=0.5;exitY=1;exitDx=0;exitDy=0;" edge="1" parent="1" source="vXJ-e7QHEPO1Bek4WTOe-50">
          <mxGeometry width="50" height="50" relative="1" as="geometry">
            <mxPoint x="-837" y="1160" as="sourcePoint" />
            <mxPoint x="-370" y="1380" as="targetPoint" />
            <Array as="points">
              <mxPoint x="-786" y="1481" />
              <mxPoint x="-370" y="1481" />
              <mxPoint x="-370" y="1384" />
            </Array>
          </mxGeometry>
        </mxCell>
        <mxCell id="vXJ-e7QHEPO1Bek4WTOe-61" value="" style="edgeStyle=elbowEdgeStyle;elbow=horizontal;endArrow=classic;html=1;curved=0;rounded=0;endSize=8;startSize=8;fontSize=12;exitX=0;exitY=0.5;exitDx=0;exitDy=0;" edge="1" parent="1" source="vXJ-e7QHEPO1Bek4WTOe-48">
          <mxGeometry width="50" height="50" relative="1" as="geometry">
            <mxPoint x="-599" y="901" as="sourcePoint" />
            <mxPoint x="-521" y="1294" as="targetPoint" />
            <Array as="points">
              <mxPoint x="-658" y="1327" />
            </Array>
          </mxGeometry>
        </mxCell>
        <mxCell id="vXJ-e7QHEPO1Bek4WTOe-69" value="" style="edgeStyle=none;curved=1;rounded=0;orthogonalLoop=1;jettySize=auto;html=1;fontSize=12;startSize=8;endSize=8;" edge="1" parent="1" source="vXJ-e7QHEPO1Bek4WTOe-63" target="vXJ-e7QHEPO1Bek4WTOe-68">
          <mxGeometry relative="1" as="geometry" />
        </mxCell>
        <mxCell id="vXJ-e7QHEPO1Bek4WTOe-63" value="take some pictures" style="rounded=1;whiteSpace=wrap;html=1;fontSize=16;" vertex="1" parent="1">
          <mxGeometry x="-434.5" y="963.5" width="120" height="60" as="geometry" />
        </mxCell>
        <mxCell id="vXJ-e7QHEPO1Bek4WTOe-71" value="" style="edgeStyle=none;curved=1;rounded=0;orthogonalLoop=1;jettySize=auto;html=1;fontSize=12;startSize=8;endSize=8;" edge="1" parent="1" source="vXJ-e7QHEPO1Bek4WTOe-65">
          <mxGeometry relative="1" as="geometry">
            <mxPoint x="109.43580060422983" y="1283" as="targetPoint" />
          </mxGeometry>
        </mxCell>
        <mxCell id="vXJ-e7QHEPO1Bek4WTOe-65" value="paddle boarding" style="rounded=1;whiteSpace=wrap;html=1;fontSize=16;" vertex="1" parent="1">
          <mxGeometry x="45.5" y="963.5" width="120" height="60" as="geometry" />
        </mxCell>
        <mxCell id="vXJ-e7QHEPO1Bek4WTOe-73" value="" style="edgeStyle=none;curved=1;rounded=0;orthogonalLoop=1;jettySize=auto;html=1;fontSize=12;startSize=8;endSize=8;" edge="1" parent="1" source="vXJ-e7QHEPO1Bek4WTOe-68">
          <mxGeometry relative="1" as="geometry">
            <mxPoint x="-1" y="1314" as="targetPoint" />
          </mxGeometry>
        </mxCell>
        <mxCell id="vXJ-e7QHEPO1Bek4WTOe-68" value="swimming" style="shape=parallelogram;perimeter=parallelogramPerimeter;whiteSpace=wrap;html=1;fixedSize=1;fontSize=16;rounded=1;" vertex="1" parent="1">
          <mxGeometry x="-510" y="1261" width="271" height="105" as="geometry" />
        </mxCell>
        <mxCell id="vXJ-e7QHEPO1Bek4WTOe-77" value="" style="edgeStyle=none;curved=1;rounded=0;orthogonalLoop=1;jettySize=auto;html=1;fontSize=12;startSize=8;endSize=8;" edge="1" parent="1" source="vXJ-e7QHEPO1Bek4WTOe-74">
          <mxGeometry relative="1" as="geometry">
            <mxPoint x="527" y="1323" as="targetPoint" />
          </mxGeometry>
        </mxCell>
        <mxCell id="vXJ-e7QHEPO1Bek4WTOe-74" value="travel from Davao to Manila" style="rounded=0;whiteSpace=wrap;html=1;fontSize=16;" vertex="1" parent="1">
          <mxGeometry x="3.5" y="1285" width="204" height="75.5" as="geometry" />
        </mxCell>
        <mxCell id="vXJ-e7QHEPO1Bek4WTOe-81" value="" style="edgeStyle=none;curved=1;rounded=0;orthogonalLoop=1;jettySize=auto;html=1;fontSize=12;startSize=8;endSize=8;" edge="1" parent="1" source="vXJ-e7QHEPO1Bek4WTOe-79">
          <mxGeometry relative="1" as="geometry">
            <mxPoint x="594.5" y="1472.75" as="targetPoint" />
          </mxGeometry>
        </mxCell>
        <mxCell id="vXJ-e7QHEPO1Bek4WTOe-79" value="At Home" style="rounded=0;whiteSpace=wrap;html=1;fontSize=16;" vertex="1" parent="1">
          <mxGeometry x="534.5" y="1292.75" width="120" height="60" as="geometry" />
        </mxCell>
        <mxCell id="vXJ-e7QHEPO1Bek4WTOe-82" value="End" style="rounded=1;whiteSpace=wrap;html=1;fontSize=16;" vertex="1" parent="1">
          <mxGeometry x="534.5" y="1476" width="120" height="60" as="geometry" />
        </mxCell>
      </root>
    </mxGraphModel>
  </diagram>
</mxfile>
